HIERARCHY
ROOT Hips
{
	OFFSET 0.000000 100.481300 0.000000
	CHANNELS 6 Xposition Yposition Zposition Xrotation Yrotation Zrotation 
	JOINT Spine
	{
		OFFSET -0.279200 12.230698 -2.892100
		CHANNELS 3 Xrotation Yrotation Zrotation
		JOINT Spine1
		{
			OFFSET -0.232667 10.192268 -1.242267
			CHANNELS 3 Xrotation Yrotation Zrotation
			JOINT Spine1_split
			{
				OFFSET -0.232667 10.192268 -1.242267
				CHANNELS 3 Xrotation Yrotation Zrotation
				JOINT Spine2
				{
					OFFSET -0.232667 10.192268 -1.242267
					CHANNELS 3 Xrotation Yrotation Zrotation
					JOINT Neck
					{
						OFFSET -0.418800 17.814194 8.416900
						CHANNELS 3 Xrotation Yrotation Zrotation
						JOINT Head
						{
							OFFSET 0.000000 7.031097 3.806800
							CHANNELS 3 Xrotation Yrotation Zrotation
							JOINT HeadTop_End
							{
								OFFSET 0.000000 24.646606 12.978600
								CHANNELS 3 Xrotation Yrotation Zrotation
								End Site
								{
									OFFSET 0.000000 0.000000 0.000000
								}
							}
						}
					}
					JOINT LeftShoulder
					{
						OFFSET 8.476499 7.247704 -3.868750
						CHANNELS 3 Xrotation Yrotation Zrotation
						JOINT LeftShoulder_split
						{
							OFFSET 8.476499 7.247704 -3.868750
							CHANNELS 3 Xrotation Yrotation Zrotation
							JOINT LeftArm
							{
								OFFSET 9.308998 -2.777710 0.208600
								CHANNELS 3 Xrotation Yrotation Zrotation
								JOINT LeftForeArm
								{
									OFFSET 29.972298 0.000000 0.000000
									CHANNELS 3 Xrotation Yrotation Zrotation
									JOINT LeftHand
									{
										OFFSET 26.026505 0.000000 0.000000
										CHANNELS 3 Xrotation Yrotation Zrotation
										JOINT LeftHandThumb1
										{
											OFFSET 12.240501 -7.147949 9.207150
											CHANNELS 3 Xrotation Yrotation Zrotation
											JOINT LeftHandThumb2
											{
												OFFSET 4.138618 -2.389435 2.389433
												CHANNELS 3 Xrotation Yrotation Zrotation
												JOINT LeftHandThumb3
												{
													OFFSET 2.726913 -1.574387 1.574386
													CHANNELS 3 Xrotation Yrotation Zrotation
													JOINT LeftHandThumb4
													{
														OFFSET 3.941010 -2.275345 2.275342
														CHANNELS 3 Xrotation Yrotation Zrotation
														End Site
														{
															OFFSET 0.000000 0.000000 0.000000
														}
													}
												}
											}
										}
										JOINT LeftHandIndex1
										{
											OFFSET 24.424698 -1.985611 5.953459
											CHANNELS 3 Xrotation Yrotation Zrotation
											JOINT LeftHandIndex2
											{
												OFFSET 6.426697 0.000000 0.000000
												CHANNELS 3 Xrotation Yrotation Zrotation
												JOINT LeftHandIndex3
												{
													OFFSET 5.337898 0.000000 0.000000
													CHANNELS 3 Xrotation Yrotation Zrotation
													JOINT LeftHandIndex4
													{
														OFFSET 4.409401 0.000000 0.000000
														CHANNELS 3 Xrotation Yrotation Zrotation
														End Site
														{
															OFFSET 0.000000 0.000000 0.000000
														}
													}
												}
											}
										}
										JOINT LeftHandMiddle1
										{
											OFFSET 23.810104 0.000000 0.000000
											CHANNELS 3 Xrotation Yrotation Zrotation
											JOINT LeftHandMiddle2
											{
												OFFSET 7.176498 0.000000 0.000000
												CHANNELS 3 Xrotation Yrotation Zrotation
												JOINT LeftHandMiddle3
												{
													OFFSET 6.774902 0.000000 0.000000
													CHANNELS 3 Xrotation Yrotation Zrotation
													JOINT LeftHandMiddle4
													{
														OFFSET 5.403328 0.000000 0.000000
														CHANNELS 3 Xrotation Yrotation Zrotation
														End Site
														{
															OFFSET 0.000000 0.000000 0.000000
														}
													}
												}
											}
										}
										JOINT LeftHandRing1
										{
											OFFSET 22.908401 -0.839279 -6.020567
											CHANNELS 3 Xrotation Yrotation Zrotation
											JOINT LeftHandRing2
											{
												OFFSET 6.337502 0.000000 0.000000
												CHANNELS 3 Xrotation Yrotation Zrotation
												JOINT LeftHandRing3
												{
													OFFSET 5.779297 0.000000 0.000000
													CHANNELS 3 Xrotation Yrotation Zrotation
													JOINT LeftHandRing4
													{
														OFFSET 4.965698 0.000000 0.000000
														CHANNELS 3 Xrotation Yrotation Zrotation
														End Site
														{
															OFFSET 0.000000 0.000000 0.000000
														}
													}
												}
											}
										}
										JOINT LeftHandPinky1
										{
											OFFSET 20.037003 -1.530319 -10.950146
											CHANNELS 3 Xrotation Yrotation Zrotation
											JOINT LeftHandPinky2
											{
												OFFSET 5.254700 0.000000 0.000000
												CHANNELS 3 Xrotation Yrotation Zrotation
												JOINT LeftHandPinky3
												{
													OFFSET 4.810204 0.000000 0.000000
													CHANNELS 3 Xrotation Yrotation Zrotation
													JOINT LeftHandPinky4
													{
														OFFSET 3.647202 0.000000 0.000000
														CHANNELS 3 Xrotation Yrotation Zrotation
														End Site
														{
															OFFSET 0.000000 0.000000 0.000000
														}
													}
												}
											}
										}
									}
								}
							}
						}
					}
					JOINT RightShoulder
					{
						OFFSET -7.570500 7.247704 -3.868750
						CHANNELS 3 Xrotation Yrotation Zrotation
						JOINT RightShoulder_split
						{
							OFFSET -7.570500 7.247704 -3.868750
							CHANNELS 3 Xrotation Yrotation Zrotation
							JOINT RightArm
							{
								OFFSET -9.308998 -2.777710 0.208500
								CHANNELS 3 Xrotation Yrotation Zrotation
								JOINT RightForeArm
								{
									OFFSET -29.972300 0.000000 0.000000
									CHANNELS 3 Xrotation Yrotation Zrotation
									JOINT RightHand
									{
										OFFSET -26.026505 0.000000 0.000000
										CHANNELS 3 Xrotation Yrotation Zrotation
										JOINT RightHandThumb1
										{
											OFFSET -12.240601 -7.148026 9.207092
											CHANNELS 3 Xrotation Yrotation Zrotation
											JOINT RightHandThumb2
											{
												OFFSET -4.138618 -2.389435 2.389433
												CHANNELS 3 Xrotation Yrotation Zrotation
												JOINT RightHandThumb3
												{
													OFFSET -2.726974 -1.574417 1.574421
													CHANNELS 3 Xrotation Yrotation Zrotation
													JOINT RightHandThumb4
													{
														OFFSET -3.941010 -2.275345 2.275343
														CHANNELS 3 Xrotation Yrotation Zrotation
														End Site
														{
															OFFSET 0.000000 0.000000 0.000000
														}
													}
												}
											}
										}
										JOINT RightHandIndex1
										{
											OFFSET -24.424698 -1.985657 5.953444
											CHANNELS 3 Xrotation Yrotation Zrotation
											JOINT RightHandIndex2
											{
												OFFSET -6.426697 0.000000 0.000000
												CHANNELS 3 Xrotation Yrotation Zrotation
												JOINT RightHandIndex3
												{
													OFFSET -5.337898 0.000000 0.000000
													CHANNELS 3 Xrotation Yrotation Zrotation
													JOINT RightHandIndex4
													{
														OFFSET -4.409401 0.000000 0.000000
														CHANNELS 3 Xrotation Yrotation Zrotation
														End Site
														{
															OFFSET 0.000000 0.000000 0.000000
														}
													}
												}
											}
										}
										JOINT RightHandMiddle1
										{
											OFFSET -23.810097 0.000000 0.000000
											CHANNELS 3 Xrotation Yrotation Zrotation
											JOINT RightHandMiddle2
											{
												OFFSET -7.176498 0.000000 0.000000
												CHANNELS 3 Xrotation Yrotation Zrotation
												JOINT RightHandMiddle3
												{
													OFFSET -6.774902 0.000000 0.000000
													CHANNELS 3 Xrotation Yrotation Zrotation
													JOINT RightHandMiddle4
													{
														OFFSET -5.403328 0.000000 0.000000
														CHANNELS 3 Xrotation Yrotation Zrotation
														End Site
														{
															OFFSET 0.000000 0.000000 0.000000
														}
													}
												}
											}
										}
										JOINT RightHandRing1
										{
											OFFSET -22.908302 -0.839325 -6.020576
											CHANNELS 3 Xrotation Yrotation Zrotation
											JOINT RightHandRing2
											{
												OFFSET -6.337502 0.000000 0.000000
												CHANNELS 3 Xrotation Yrotation Zrotation
												JOINT RightHandRing3
												{
													OFFSET -5.779297 0.000000 0.000000
													CHANNELS 3 Xrotation Yrotation Zrotation
													JOINT RightHandRing4
													{
														OFFSET -4.965698 0.000000 0.000000
														CHANNELS 3 Xrotation Yrotation Zrotation
														End Site
														{
															OFFSET 0.000000 0.000000 0.000000
														}
													}
												}
											}
										}
										JOINT RightHandPinky1
										{
											OFFSET -20.037003 -1.530334 -10.950259
											CHANNELS 3 Xrotation Yrotation Zrotation
											JOINT RightHandPinky2
											{
												OFFSET -5.254700 0.000000 0.000000
												CHANNELS 3 Xrotation Yrotation Zrotation
												JOINT RightHandPinky3
												{
													OFFSET -4.810204 0.000000 0.000000
													CHANNELS 3 Xrotation Yrotation Zrotation
													JOINT RightHandPinky4
													{
														OFFSET -3.647202 0.000000 0.000000
														CHANNELS 3 Xrotation Yrotation Zrotation
														End Site
														{
															OFFSET 0.000000 0.000000 0.000000
														}
													}
												}
											}
										}
									}
								}
							}
						}
					}
				}
			}
		}
	}
	JOINT LeftUpLeg
	{
		OFFSET 15.427100 -6.655098 0.678600
		CHANNELS 3 Xrotation Yrotation Zrotation
		JOINT LeftLeg
		{
			OFFSET 4.081073 -39.591068 13.024000
			CHANNELS 3 Xrotation Yrotation Zrotation
			JOINT LeftFoot
			{
				OFFSET -4.081074 -37.707932 -15.979700
				CHANNELS 3 Xrotation Yrotation Zrotation
				JOINT LeftToeBase
				{
					OFFSET 5.346399 -15.068900 20.645000
					CHANNELS 3 Xrotation Yrotation Zrotation
					JOINT LeftToe_End
					{
						OFFSET 2.754700 0.931300 11.300900
						CHANNELS 3 Xrotation Yrotation Zrotation
						End Site
						{
							OFFSET 0.000000 0.000000 0.000000
						}
					}
				}
			}
		}
	}
	JOINT RightUpLeg
	{
		OFFSET -15.569500 -6.655098 0.678600
		CHANNELS 3 Xrotation Yrotation Zrotation
		JOINT RightLeg
		{
			OFFSET -4.081825 -39.591045 13.023800
			CHANNELS 3 Xrotation Yrotation Zrotation
			JOINT RightFoot
			{
				OFFSET 4.081824 -37.707954 -15.979600
				CHANNELS 3 Xrotation Yrotation Zrotation
				JOINT RightToeBase
				{
					OFFSET -5.346400 -15.068900 20.645000
					CHANNELS 3 Xrotation Yrotation Zrotation
					JOINT RightToe_End
					{
						OFFSET -2.754700 0.931300 11.300900
						CHANNELS 3 Xrotation Yrotation Zrotation
						End Site
						{
							OFFSET 0.000000 0.000000 0.000000
						}
					}
				}
			}
		}
	}
}
MOTION
Frames: 4
Frame Time: 0.016667
1.998719 86.401176 0.962101 26.294020 11.545052 1.276064 11.273210 -1.054590 1.478594 9.276073 2.486271 -1.078452 0.000000 0.000000 0.000000 9.399710 1.253083 -3.812948 -9.096153 7.493534 -0.883476 -27.171302 1.769073 -6.727663 -0.000001 0.000001 -0.000001 0.803801 0.857153 -9.303939 0.000000 0.000000 0.000000 -29.535886 -3.682380 -62.075116 0.000001 -41.672774 -0.000004 20.410303 8.999556 -6.096336 -6.000716 -6.126806 4.616743 7.450105 23.644278 2.310960 -5.513974 12.822086 16.414973 0.000000 -0.000003 -0.000001 1.311405 -4.551192 -15.849340 1.142357 3.477099 -36.365139 0.160131 1.361747 -13.413066 0.000000 -0.000002 -0.000001 0.477011 4.520331 -21.613215 1.655965 4.082391 -44.144445 0.160130 1.361752 -13.413061 0.000000 0.000000 -0.000000 2.993463 9.713620 -25.720711 1.694442 4.121556 -44.682230 1.655856 4.082269 -44.142867 0.000000 -0.000001 -0.000000 -10.154131 18.200854 -22.286627 1.656851 4.083313 -44.156855 1.655970 4.082381 -44.144435 -0.000002 -0.000000 -0.000000 5.720869 24.427844 1.421185 0.000000 0.000000 0.000000 -24.663767 -14.041413 65.136413 -0.000001 37.034262 -0.000004 11.717742 14.064673 -10.776500 -5.141688 1.887940 -6.280728 7.832950 -27.003848 -3.053100 -4.392075 -14.643034 -16.623697 -0.000004 0.000000 -0.000001 9.420636 2.591770 6.997325 0.448779 -1.996451 25.335320 0.448784 -1.996469 25.335294 0.000001 -0.000003 -0.000003 0.141879 -3.212530 11.503911 0.448787 -1.996460 25.335325 0.448789 -1.996478 25.335292 -0.000003 0.000002 0.000003 1.475373 -6.489820 23.742038 0.450090 -1.999219 25.372804 0.448794 -1.996486 25.335456 0.000001 -0.000001 -0.000000 -12.523765 -9.712291 30.059700 0.448777 -1.996465 25.335298 0.448780 -1.996457 25.335306 0.000000 -0.000002 0.000001 -38.867308 8.443057 17.036012 40.656015 7.303555 -6.636479 1.498906 24.485549 -19.401762 -6.606297 0.178801 -4.754566 -0.000000 -0.000002 -0.000000 -66.128573 -11.776474 -11.275370 37.927576 3.321763 -4.985307 1.339063 -9.551578 0.370651 -1.450651 0.000001 -0.000191 -0.000000 0.000000 -0.000000 
1.813695 87.947906 2.525398 26.220656 11.829643 1.551573 10.891243 -0.549115 1.473841 9.270623 2.730509 -1.057022 0.000000 0.000000 0.000000 9.403915 1.489583 -3.792869 -9.298685 7.419094 -1.033892 -26.919037 0.659607 -7.172825 -0.000002 0.000000 -0.000000 0.819696 0.837066 -9.277589 0.000000 0.000000 0.000000 -28.935717 -1.468109 -61.169760 0.000005 -41.886651 0.000008 28.314167 8.850557 -10.911711 -6.000713 -6.126801 4.616758 7.450103 23.644278 2.310954 -5.513975 12.822087 16.414973 -0.000000 -0.000002 -0.000003 1.332686 -4.478270 -16.588786 1.170438 3.514858 -36.825645 0.167630 1.392794 -13.724859 0.000000 -0.000003 -0.000001 0.494561 4.563974 -22.073423 1.678331 4.105250 -44.457667 0.165539 1.384208 -13.638520 0.000001 -0.000001 0.000002 3.034015 9.729420 -26.036563 1.710894 4.138086 -44.910748 1.668052 4.094776 -44.314039 0.000001 -0.000000 0.000000 -10.114108 18.209721 -22.521273 1.669252 4.096008 -44.330732 1.665518 4.092176 -44.278392 0.000003 -0.000000 -0.000000 5.725888 24.411897 1.390778 0.000000 0.000000 0.000000 -24.662567 -15.375722 64.479977 -0.000003 37.223192 -0.000016 10.068248 13.567030 -10.840921 -5.210765 2.102417 -6.162657 7.832946 -27.003853 -3.053098 -4.360947 -14.936029 -16.682874 -0.000000 0.000001 0.000002 9.420639 2.591778 6.997321 0.458704 -2.017274 25.618875 0.458739 -2.017342 25.619369 0.000002 0.000003 0.000001 0.144104 -3.223365 11.639862 0.454449 -2.008362 25.497141 0.453271 -2.005911 25.464048 0.000000 0.000002 0.000001 1.483111 -6.495720 23.847368 0.454591 -2.008680 25.501522 0.452447 -2.004171 25.440132 0.000001 0.000001 -0.000000 -12.459880 -9.795168 30.147164 0.452430 -2.004141 25.439798 0.451816 -2.002844 25.422067 0.000001 0.000000 0.000002 -39.482844 8.787335 15.668401 36.978385 7.445280 -6.559457 4.480471 25.077234 -20.251221 -6.939902 0.245241 -4.300910 0.000001 0.000000 0.000000 -63.326679 -12.051680 -11.115894 35.807878 3.610168 -4.968625 0.721736 -9.991802 0.449501 -1.448296 0.000005 -0.000204 -0.000000 0.000000 -0.000000 
1.834502 89.351013 4.488014 26.037485 12.365573 1.775998 10.470028 0.066820 1.540383 9.248262 2.964300 -0.996378 0.000000 0.000000 0.000000 9.387525 1.751385 -3.651126 -9.472123 7.196017 -1.232979 -26.658568 -0.579040 -7.669383 -0.000001 -0.000002 0.000001 0.864100 0.779453 -9.200427 0.000000 0.000000 0.000000 -27.914285 0.938285 -60.038517 0.000002 -42.148869 0.000004 33.782819 8.315948 -15.356972 -6.000712 -6.126807 4.616741 7.450104 23.644279 2.310954 -5.513977 12.822089 16.414973 0.000004 0.000001 0.000000 1.391893 -4.291526 -18.495560 1.247196 3.614891 -38.060089 0.189045 1.477694 -14.579802 -0.000001 0.000001 -0.000001 0.543331 4.680217 -23.307013 1.740282 4.167282 -45.316543 0.181040 1.446576 -14.266153 -0.000001 0.000001 -0.000000 3.145657 9.771619 -26.902657 1.757053 4.183759 -45.546956 1.702598 4.129771 -44.795792 0.000002 0.000000 -0.000000 -10.003786 18.233511 -23.175412 1.704342 4.131509 -44.819746 1.692727 4.119824 -44.658413 -0.000001 0.000001 -0.000000 5.738790 24.365544 1.303484 0.000000 0.000000 0.000000 -24.740735 -16.700533 63.463263 0.000001 37.406515 0.000013 8.192588 12.947368 -10.997477 -5.403155 2.694646 -5.834611 7.832945 -27.003848 -3.053102 -4.276268 -15.746229 -16.846018 0.000000 -0.000001 -0.000001 9.420635 2.591786 6.997328 0.486710 -2.074616 26.402877 0.486774 -2.074756 26.404758 0.000003 -0.000003 0.000000 0.150466 -3.253682 12.020592 0.470603 -2.041881 25.954577 0.466193 -2.032802 25.830416 -0.000001 -0.000000 0.000001 1.505056 -6.512319 24.145053 0.467527 -2.035568 25.867890 0.462979 -2.026133 25.739739 0.000004 -0.000001 0.000001 -12.276610 -10.030083 30.396965 0.462940 -2.026085 25.738852 0.460569 -2.021152 25.671563 0.000001 0.000002 -0.000000 -39.801360 9.075699 14.390205 33.899827 7.302822 -6.421816 7.151908 26.099690 -21.545862 -8.590501 0.161779 -1.651973 -0.000000 0.000001 0.000000 -60.331157 -12.411494 -11.371223 34.079591 3.655998 -4.906396 -0.398275 -10.209955 0.737786 -1.443462 -0.000005 -0.000225 -0.000000 0.000000 -0.000000 
1.877903 90.670128 6.448837 25.756450 13.132703 1.943323 10.122308 0.781820 1.672751 9.210909 3.190170 -0.903510 0.000000 0.000000 0.000000 9.351837 2.036268 -3.375819 -9.624998 6.855368 -1.477746 -26.488041 -1.955141 -8.210933 -0.000001 0.000001 -0.000000 0.932217 0.688369 -9.075187 0.000000 0.000000 0.000000 -26.479330 3.102036 -58.698420 0.000005 -42.442990 0.000003 35.621451 7.717633 -18.708727 -6.000718 -6.126807 4.616763 7.450102 23.644281 2.310959 -5.513975 12.822089 16.414975 -0.000000 0.000001 0.000000 1.482834 -4.039559 -21.102385 1.362126 3.756761 -39.847682 0.223400 1.603917 -15.857341 -0.000000 0.000001 -0.000001 0.618371 4.846622 -25.093434 1.834576 4.258220 -46.600079 0.205985 1.541333 -15.222883 -0.000001 0.000001 -0.000002 3.311825 9.828182 -28.197164 1.828395 4.252394 -46.516788 1.756579 4.183285 -45.540389 0.000001 -0.000000 -0.000001 -9.839249 18.267264 -24.172186 1.759090 4.185768 -45.574823 1.735585 4.162620 -45.251769 -0.000001 0.000000 -0.000000 5.756290 24.290972 1.165174 0.000000 0.000000 0.000000 -24.886542 -18.127290 62.390165 -0.000002 37.716691 -0.000013 6.128156 12.171681 -11.084181 -5.697783 3.587366 -5.334425 7.832946 -27.003846 -3.053101 -4.152277 -16.970595 -17.091432 0.000000 0.000001 0.000000 9.420634 2.591769 6.997317 0.530483 -2.160473 27.587346 0.530624 -2.160753 27.591319 -0.000001 0.000002 -0.000003 0.160629 -3.300185 12.605194 0.496259 -2.093722 26.665374 0.486771 -2.074752 26.404769 0.000002 0.000002 -0.000001 1.539351 -6.537923 24.607515 0.488132 -2.077487 26.442270 0.479844 -2.060745 26.212589 -0.000001 -0.000001 -0.000000 -11.985069 -10.395305 30.791094 0.479778 -2.060612 26.210842 0.474631 -2.050135 26.067484 0.000001 -0.000001 -0.000000 -40.266837 9.305035 13.081759 31.254324 6.751377 -6.261176 9.054243 28.089136 -22.459863 -6.936875 -0.055739 0.726663 0.000000 -0.000000 0.000000 -57.287395 -12.938570 -11.709774 32.380697 3.891937 -4.845587 -1.511320 -10.719056 1.004565 -1.437642 0.000007 -0.000215 0.000000 0.000000 -0.000000 
